{
  "asset": {
    "version": "2.0",
    "generator": "THREE.GLTFExporter r174"
  },
  "scenes": [
    {
      "name": "AuxScene",
      "nodes": [
        14
      ]
    }
  ],
  "scene": 0,
  "nodes": [
    {
      "translation": [
        -46.500099182128906,
        -16.385700225830078,
        -4.25
      ],
      "mesh": 0
    },
    {
      "children": [
        0
      ]
    },
    {
      "translation": [
        -46.500099182128906,
        -16.385700225830078,
        -4.25
      ],
      "scale": [
        1.01,
        1.01,
        1.06
      ],
      "mesh": 1
    },
    {
      "children": [
        2
      ]
    },
    {
      "translation": [
        -46.500099182128906,
        -16.385700225830078,
        -4.25
      ],
      "scale": [
        1.01,
        1.01,
        1.06
      ],
      "mesh": 2
    },
    {
      "children": [
        4
      ]
    },
    {
      "translation": [
        -46.500099182128906,
        -16.385700225830078,
        -4.25
      ],
      "scale": [
        1.01,
        1.01,
        1.06
      ],
      "mesh": 3
    },
    {
      "children": [
        6
      ]
    },
    {
      "translation": [
        -46.500099182128906,
        -16.385700225830078,
        -4.25
      ],
      "scale": [
        1.01,
        1.01,
        1.06
      ],
      "mesh": 4
    },
    {
      "children": [
        8
      ]
    },
    {
      "rotation": [
        0,
        0.3826834323650898,
        0,
        0.9238795325112867
      ],
      "scale": [
        1.075268817204301,
        -1.075268817204301,
        1.075268817204301
      ],
      "children": [
        1,
        3,
        5,
        7,
        9
      ]
    },
    {
      "children": [
        10
      ]
    },
    {
      "translation": [
        -0.008173469219947549,
        0.04113502399895985,
        0.00817349187954619
      ],
      "children": [
        11
      ]
    },
    {
      "children": [
        12
      ]
    },
    {
      "children": [
        13
      ]
    }
  ],
  "bufferViews": [
    {
      "buffer": 0,
      "byteOffset": 0,
      "byteLength": 16416,
      "target": 34962,
      "byteStride": 12
    },
    {
      "buffer": 0,
      "byteOffset": 16416,
      "byteLength": 10944,
      "target": 34962,
      "byteStride": 8
    },
    {
      "buffer": 0,
      "byteOffset": 27360,
      "byteLength": 16416,
      "target": 34962,
      "byteStride": 12
    },
    {
      "buffer": 0,
      "byteOffset": 43776,
      "byteLength": 8496,
      "target": 34962,
      "byteStride": 12
    },
    {
      "buffer": 0,
      "byteOffset": 52272,
      "byteLength": 5664,
      "target": 34962,
      "byteStride": 8
    },
    {
      "buffer": 0,
      "byteOffset": 57936,
      "byteLength": 8496,
      "target": 34962,
      "byteStride": 12
    },
    {
      "buffer": 0,
      "byteOffset": 66432,
      "byteLength": 33120,
      "target": 34962,
      "byteStride": 12
    },
    {
      "buffer": 0,
      "byteOffset": 99552,
      "byteLength": 22080,
      "target": 34962,
      "byteStride": 8
    },
    {
      "buffer": 0,
      "byteOffset": 121632,
      "byteLength": 33120,
      "target": 34962,
      "byteStride": 12
    },
    {
      "buffer": 0,
      "byteOffset": 154752,
      "byteLength": 5616,
      "target": 34962,
      "byteStride": 12
    },
    {
      "buffer": 0,
      "byteOffset": 160368,
      "byteLength": 3744,
      "target": 34962,
      "byteStride": 8
    },
    {
      "buffer": 0,
      "byteOffset": 164112,
      "byteLength": 5616,
      "target": 34962,
      "byteStride": 12
    },
    {
      "buffer": 0,
      "byteOffset": 169728,
      "byteLength": 24336,
      "target": 34962,
      "byteStride": 12
    },
    {
      "buffer": 0,
      "byteOffset": 194064,
      "byteLength": 16224,
      "target": 34962,
      "byteStride": 8
    },
    {
      "buffer": 0,
      "byteOffset": 210288,
      "byteLength": 24336,
      "target": 34962,
      "byteStride": 12
    }
  ],
  "buffers": [
    {
      "byteLength": 234624,
      "uri": "data:application/octet-stream;base64,"
    }
  ],
  "accessors": [
    {
      "bufferView": 0,
      "componentType": 5126,
      "count": 1368,
      "max": [
        47.73533630371094,
        33.45505905151367,
        9.5
      ],
      "min": [
        -0.6173781156539917,
        -0.6175425052642822,
        -1
      ],
      "type": "VEC3"
    },
    {
      "bufferView": 1,
      "componentType": 5126,
      "count": 1368,
      "max": [
        47.73533630371094,
        32.771400451660156
      ],
      "min": [
        -0.6173781156539917,
        -8.5
      ],
      "type": "VEC2"
    },
    {
      "bufferView": 2,
      "componentType": 5126,
      "count": 1368,
      "max": [
        0.9118003249168396,
        0.9999951720237732,
        1
      ],
      "min": [
        -0.8761684894561768,
        -0.9999111294746399,
        -1
      ],
      "type": "VEC3"
    },
    {
      "bufferView": 3,
      "componentType": 5126,
      "count": 708,
      "max": [
        62.86771774291992,
        24.256610870361328,
        9.5
      ],
      "min": [
        36.731689453125,
        9.360807418823242,
        -1
      ],
      "type": "VEC3"
    },
    {
      "bufferView": 4,
      "componentType": 5126,
      "count": 708,
      "max": [
        62.86771774291992,
        23.881500244140625
      ],
      "min": [
        9.360807418823242,
        -8.5
      ],
      "type": "VEC2"
    },
    {
      "bufferView": 5,
      "componentType": 5126,
      "count": 708,
      "max": [
        0.9551087617874146,
        0.9999794363975525,
        1
      ],
      "min": [
        -0.8923093676567078,
        -0.9999994039535522,
        -1
      ],
      "type": "VEC3"
    },
    {
      "bufferView": 6,
      "componentType": 5126,
      "count": 2760,
      "max": [
        68.91938781738281,
        32.808963775634766,
        9.5
      ],
      "min": [
        50.47370910644531,
        13.197101593017578,
        -1
      ],
      "type": "VEC3"
    },
    {
      "bufferView": 7,
      "componentType": 5126,
      "count": 2760,
      "max": [
        68.91938781738281,
        32.14820098876953
      ],
      "min": [
        14.750470161437988,
        -8.5
      ],
      "type": "VEC2"
    },
    {
      "bufferView": 8,
      "componentType": 5126,
      "count": 2760,
      "max": [
        0.9565467238426208,
        0.9999635219573975,
        1
      ],
      "min": [
        -0.977733314037323,
        -0.9963890910148621,
        -1
      ],
      "type": "VEC3"
    },
    {
      "bufferView": 9,
      "componentType": 5126,
      "count": 468,
      "max": [
        93.67129516601562,
        33.4654541015625,
        9.5
      ],
      "min": [
        73.630615234375,
        11.183239936828613,
        -1
      ],
      "type": "VEC3"
    },
    {
      "bufferView": 10,
      "componentType": 5126,
      "count": 468,
      "max": [
        93.67129516601562,
        32.771400451660156
      ],
      "min": [
        11.183239936828613,
        -8.5
      ],
      "type": "VEC2"
    },
    {
      "bufferView": 11,
      "componentType": 5126,
      "count": 468,
      "max": [
        0.9978167414665222,
        0.8717854022979736,
        1
      ],
      "min": [
        -0.9955474138259888,
        -0.8990733027458191,
        -1
      ],
      "type": "VEC3"
    },
    {
      "bufferView": 12,
      "componentType": 5126,
      "count": 2028,
      "max": [
        82.42951965332031,
        27.23939323425293,
        9.5
      ],
      "min": [
        64.44983673095703,
        9.613120079040527,
        -1
      ],
      "type": "VEC3"
    },
    {
      "bufferView": 13,
      "componentType": 5126,
      "count": 2028,
      "max": [
        82.42951965332031,
        26.73550033569336
      ],
      "min": [
        9.613120079040527,
        -8.5
      ],
      "type": "VEC2"
    },
    {
      "bufferView": 14,
      "componentType": 5126,
      "count": 2028,
      "max": [
        0.9992322325706482,
        0.993329644203186,
        1
      ],
      "min": [
        -0.9987463355064392,
        -0.9981090426445007,
        -1
      ],
      "type": "VEC3"
    }
  ],
  "materials": [
    {
      "pbrMetallicRoughness": {
        "baseColorFactor": [
          0.6866853124288864,
          0.6375968739867731,
          0.8069522576650873,
          1
        ],
        "metallicFactor": 0.9,
        "roughnessFactor": 0.2
      },
      "doubleSided": true,
      "extras": {
        "originalProperties": {
          "color": 14209512,
          "roughness": 0.2,
          "metalness": 0.9,
          "clearcoat": 1,
          "clearcoatRoughness": 0.05,
          "transmission": 0,
          "ior": 2.3333333333333335,
          "opacity": 1,
          "sheen": 0,
          "sheenRoughness": 1
        },
        "isHole": false
      },
      "extensions": {
        "KHR_materials_ior": {
          "ior": 2.3333333333333335
        },
        "KHR_materials_clearcoat": {
          "clearcoatFactor": 1,
          "clearcoatRoughnessFactor": 0.05
        }
      }
    },
    {
      "pbrMetallicRoughness": {
        "baseColorFactor": [
          0.6866853124288864,
          0.6375968739867731,
          0.8069522576650873,
          1
        ],
        "metallicFactor": 0.9,
        "roughnessFactor": 0.2
      },
      "alphaMode": "BLEND",
      "doubleSided": true,
      "extras": {
        "originalProperties": {
          "color": 14209512,
          "roughness": 0.2,
          "metalness": 0.9,
          "clearcoat": 1,
          "clearcoatRoughness": 0.05,
          "transmission": 0,
          "ior": 2.3333333333333335,
          "opacity": 1,
          "sheen": 0,
          "sheenRoughness": 1
        },
        "isHole": true
      },
      "extensions": {
        "KHR_materials_ior": {
          "ior": 2.3333333333333335
        },
        "KHR_materials_clearcoat": {
          "clearcoatFactor": 1,
          "clearcoatRoughnessFactor": 0.05
        }
      }
    },
    {
      "pbrMetallicRoughness": {
        "baseColorFactor": [
          0.6866853124288864,
          0.6375968739867731,
          0.8069522576650873,
          1
        ],
        "metallicFactor": 0.9,
        "roughnessFactor": 0.2
      },
      "alphaMode": "BLEND",
      "doubleSided": true,
      "extras": {
        "originalProperties": {
          "color": 14209512,
          "roughness": 0.2,
          "metalness": 0.9,
          "clearcoat": 1,
          "clearcoatRoughness": 0.05,
          "transmission": 0,
          "ior": 2.3333333333333335,
          "opacity": 1,
          "sheen": 0,
          "sheenRoughness": 1
        },
        "isHole": true
      },
      "extensions": {
        "KHR_materials_ior": {
          "ior": 2.3333333333333335
        },
        "KHR_materials_clearcoat": {
          "clearcoatFactor": 1,
          "clearcoatRoughnessFactor": 0.05
        }
      }
    },
    {
      "pbrMetallicRoughness": {
        "baseColorFactor": [
          0.6866853124288864,
          0.6375968739867731,
          0.8069522576650873,
          1
        ],
        "metallicFactor": 0.9,
        "roughnessFactor": 0.2
      },
      "alphaMode": "BLEND",
      "doubleSided": true,
      "extras": {
        "originalProperties": {
          "color": 14209512,
          "roughness": 0.2,
          "metalness": 0.9,
          "clearcoat": 1,
          "clearcoatRoughness": 0.05,
          "transmission": 0,
          "ior": 2.3333333333333335,
          "opacity": 1,
          "sheen": 0,
          "sheenRoughness": 1
        },
        "isHole": true
      },
      "extensions": {
        "KHR_materials_ior": {
          "ior": 2.3333333333333335
        },
        "KHR_materials_clearcoat": {
          "clearcoatFactor": 1,
          "clearcoatRoughnessFactor": 0.05
        }
      }
    },
    {
      "pbrMetallicRoughness": {
        "baseColorFactor": [
          0.6866853124288864,
          0.6375968739867731,
          0.8069522576650873,
          1
        ],
        "metallicFactor": 0.9,
        "roughnessFactor": 0.2
      },
      "alphaMode": "BLEND",
      "doubleSided": true,
      "extras": {
        "originalProperties": {
          "color": 14209512,
          "roughness": 0.2,
          "metalness": 0.9,
          "clearcoat": 1,
          "clearcoatRoughness": 0.05,
          "transmission": 0,
          "ior": 2.3333333333333335,
          "opacity": 1,
          "sheen": 0,
          "sheenRoughness": 1
        },
        "isHole": true
      },
      "extensions": {
        "KHR_materials_ior": {
          "ior": 2.3333333333333335
        },
        "KHR_materials_clearcoat": {
          "clearcoatFactor": 1,
          "clearcoatRoughnessFactor": 0.05
        }
      }
    }
  ],
  "meshes": [
    {
      "primitives": [
        {
          "mode": 4,
          "attributes": {
            "POSITION": 0,
            "TEXCOORD_0": 1,
            "NORMAL": 2
          },
          "material": 0
        }
      ]
    },
    {
      "primitives": [
        {
          "mode": 4,
          "attributes": {
            "POSITION": 3,
            "TEXCOORD_0": 4,
            "NORMAL": 5
          },
          "material": 1
        }
      ]
    },
    {
      "primitives": [
        {
          "mode": 4,
          "attributes": {
            "POSITION": 6,
            "TEXCOORD_0": 7,
            "NORMAL": 8
          },
          "material": 2
        }
      ]
    },
    {
      "primitives": [
        {
          "mode": 4,
          "attributes": {
            "POSITION": 9,
            "TEXCOORD_0": 10,
            "NORMAL": 11
          },
          "material": 3
        }
      ]
    },
    {
      "primitives": [
        {
          "mode": 4,
          "attributes": {
            "POSITION": 12,
            "TEXCOORD_0": 13,
            "NORMAL": 14
          },
          "material": 4
        }
      ]
    }
  ],
  "extensionsUsed": [
    "KHR_materials_ior",
    "KHR_materials_clearcoat"
  ]
}